# xmcd CD database file
#
# Track frame offsets:
#	150
#	36503
#	64310
#	99333
#	124428
#	150388
#	167820
#
# Disc length: 2635 seconds
#
# Revision: 0
# Processed by: cddbd v1.4PL0 Copyright (c) Steve Scherf et al.
# Submitted via: CDex 1.50beta10
#
DISCID=5c0a4907
DTITLE=Shelly Mann and His Men - Checkmate
DYEAR=1900
DGENRE=Jazz
TTITLE0=Checkmate
TTITLE1=The Isolated Pawn
TTITLE2=Cyanide Touch
TTITLE3=The King Swings
TTITLE4=En Passant
TTITLE5=Fireside Eyes
TTITLE6=The Balck Knight
EXTD=
EXTT0=
EXTT1=
EXTT2=
EXTT3=
EXTT4=
EXTT5=
EXTT6=
PLAYORDER=
